<?xml version="1.0" standalone="no"?><!DOCTYPE svg PUBLIC "-//W3C//DTD SVG 1.1//EN" "http://www.w3.org/Graphics/SVG/1.1/DTD/svg11.dtd"><svg t="1592872587494" class="icon" viewBox="0 0 1024 1024" version="1.1" xmlns="http://www.w3.org/2000/svg" p-id="5402" xmlns:xlink="http://www.w3.org/1999/xlink" width="200" height="200"><defs><style type="text/css"></style></defs><path d="M862.72 911.36H161.792c-14.336 0-29.184-7.168-37.888-17.92-9.216-12.8-12.8-27.136-9.216-41.472C151.04 668.16 301.056 531.456 482.304 517.12c60.416 0 126.464 7.68 192 34.304 18.944 7.68 25.6 12.8 36.352 17.92 104.96 59.392 177.664 161.792 201.216 282.624 3.584 14.336 0 28.672-10.752 41.472-9.216 10.752-24.064 17.92-38.4 17.92z" fill="#1296db" p-id="5403"></path><path d="M490.454 522.048a206.848 206.848 0 1 0 45.138-411.226 206.848 206.848 0 1 0-45.138 411.226z" fill="#1296db" p-id="5404"></path></svg>